<?xml version="1.0" standalone="no"?>
<!DOCTYPE svg PUBLIC "-//W3C//DTD SVG 20010904//EN"
 "http://www.w3.org/TR/2001/REC-SVG-20010904/DTD/svg10.dtd">
<svg version="1.0" xmlns="http://www.w3.org/2000/svg"
 width="6250.000000pt" height="4167.000000pt" viewBox="0 0 6250.000000 4167.000000"
 preserveAspectRatio="xMidYMid meet">

<g transform="translate(0.000000,4167.000000) scale(0.100000,-0.100000)"
fill="#000000" stroke="none">
<path d="M32990 26277 c0 -27 3 -27 163 -43 l68 -7 -3 32 -2 31 -97 0 c-54 0
-104 3 -113 6 -12 5 -16 0 -16 -19z"/>
<path d="M29950 26279 c-121 -15 -110 2 -110 -168 l0 -149 -67 -22 c-284 -92
-541 -304 -684 -562 l-29 -53 0 255 -1 255 -50 -55 c-246 -272 -385 -700 -349
-1072 11 -115 43 -269 74 -357 14 -38 16 -181 16 -1242 l0 -1199 38 1 c20 0
31 3 25 6 -10 4 -13 251 -13 1189 l0 1184 40 0 40 0 0 -95 c0 -67 -4 -102 -15
-118 -13 -20 -13 -26 0 -51 12 -22 15 -72 15 -227 0 -121 -4 -200 -10 -204 -5
-3 -10 -19 -10 -35 0 -16 5 -32 10 -35 6 -4 10 -79 10 -191 0 -146 -3 -189
-15 -207 -13 -20 -13 -26 0 -51 12 -22 15 -70 15 -211 0 -141 -3 -189 -15
-211 -13 -25 -13 -31 0 -51 12 -18 15 -62 15 -213 0 -151 -3 -195 -15 -213
-13 -20 -13 -26 1 -52 11 -22 14 -54 12 -122 l-3 -93 30 1 c17 0 24 3 18 6
-20 7 -18 177 2 193 8 7 15 25 15 40 0 15 -7 33 -15 40 -12 10 -15 45 -15 200
0 155 3 190 15 200 8 7 15 26 15 42 0 16 -6 31 -15 34 -13 5 -15 37 -15 199 0
162 2 194 15 199 9 3 15 18 15 34 0 16 -7 35 -15 42 -12 10 -15 44 -15 190 0
146 3 180 15 190 8 7 15 25 15 40 0 15 -7 33 -15 40 -12 10 -15 46 -15 207 0
159 3 197 15 209 8 9 15 26 15 38 0 13 -7 29 -15 36 -11 9 -15 35 -15 106 l0
94 45 0 45 0 -2 -1190 -3 -1190 1225 0 1225 0 -3 246 -3 246 -62 -6 -63 -7
-48 173 c-82 291 -179 564 -265 748 -24 51 -25 52 34 -125 66 -199 161 -606
181 -777 8 -71 -1 -86 -84 -141 -87 -59 -149 -83 -251 -98 -130 -19 -170 -10
-333 70 -79 39 -174 79 -213 89 -81 22 -75 11 -99 197 -35 277 -44 662 -21
885 7 67 -30 -146 -50 -290 -13 -89 -19 -217 -22 -447 -5 -288 -7 -323 -22
-327 -56 -17 -424 -76 -473 -76 -119 0 -158 36 -158 145 0 243 112 629 277
959 77 153 39 104 -56 -73 -126 -233 -110 -196 -329 -786 -34 -91 -40 -100
-62 -99 -62 3 -276 39 -287 48 -43 38 104 484 263 798 183 359 409 608 791
870 57 40 103 78 103 87 0 9 -14 76 -32 150 -31 128 -35 136 -76 175 -63 60
-72 106 -40 218 10 33 18 40 62 57 28 11 58 22 67 26 13 5 18 -2 23 -34 9 -57
42 -91 94 -98 89 -12 186 58 238 171 27 60 41 116 28 116 -5 0 -56 -19 -114
-41 -58 -23 -140 -54 -182 -70 l-78 -28 0 157 0 157 173 69 c229 92 586 232
615 240 l23 8 -3 -158 -3 -157 -148 -60 c-143 -58 -147 -61 -120 -72 52 -22
68 -82 52 -191 -10 -65 -19 -87 -57 -143 -86 -125 -124 -240 -137 -411 l-7
-85 109 -92 c60 -51 170 -154 244 -230 226 -232 323 -366 445 -616 l73 -152
-2 584 -2 585 -217 -3 c-160 -2 -218 1 -218 9 0 6 14 25 30 42 35 35 36 38 10
38 -36 0 -71 24 -90 60 -42 83 -34 161 20 193 26 16 29 21 19 39 -6 11 -8 35
-4 56 9 51 69 164 105 200 61 62 183 72 886 79 537 5 596 4 649 -12 60 -17
124 -55 159 -94 l19 -21 698 0 c424 0 708 4 723 10 38 14 42 50 13 115 l-26
55 -725 0 -725 0 -15 22 c-25 35 -20 76 12 107 23 24 42 30 112 40 152 21 398
31 737 31 347 0 457 -9 533 -41 l46 -20 199 79 c109 44 201 84 203 90 11 33
-135 306 -220 413 l-43 54 -5 -234 -5 -235 -42 85 c-23 46 -58 106 -78 132
l-36 47 -169 0 -170 0 0 -130 0 -130 -400 0 -400 0 0 135 0 135 -165 0 -165 0
0 -135 0 -135 -385 0 -385 0 0 51 c0 45 2 50 19 44 20 -6 51 17 51 38 0 23
-31 57 -51 57 -16 0 -19 7 -19 45 l0 45 225 0 225 0 0 153 0 154 -182 6 c-99
4 -334 7 -520 7 l-340 0 44 -52 c93 -111 88 -93 88 -310 l0 -193 -45 83 c-89
166 -205 312 -347 437 l-78 68 0 103 0 104 25 -10 c86 -33 177 -92 258 -168
l57 -55 0 136 0 135 -247 4 c-137 2 -256 8 -265 12 -16 7 -18 1 -18 -66 l0
-75 95 -61 95 -61 0 -197 0 -196 -67 59 c-107 93 -172 139 -270 187 -119 60
-247 102 -372 123 l-101 18 0 45 c0 34 5 48 20 58 11 7 20 23 20 37 0 14 -9
30 -20 37 -16 10 -20 24 -20 61 l0 49 85 -3 c47 -2 85 -1 85 4 0 9 -317 7
-400 -4z m-110 -1396 l0 -158 -118 -48 c-136 -56 -650 -257 -657 -257 -3 0 -4
70 -3 156 l3 157 160 65 c140 57 606 240 613 242 1 0 2 -71 2 -157z"/>
<path d="M29640 24845 c-17 -20 -5 -62 20 -70 44 -14 80 41 48 73 -17 17 -53
15 -68 -3z"/>
<path d="M29232 24688 c-7 -7 -12 -21 -12 -33 0 -44 60 -63 80 -26 14 27 13
37 -6 55 -18 19 -45 21 -62 4z"/>
<path d="M32930 26265 c0 -8 5 -15 10 -15 6 0 10 7 10 15 0 8 -4 15 -10 15 -5
0 -10 -7 -10 -15z"/>
<path d="M33660 26217 c0 -30 3 -82 6 -115 6 -55 10 -64 40 -84 19 -13 34 -29
34 -35 0 -7 12 -13 26 -13 14 0 41 -12 60 -26 l35 -27 -3 144 -3 143 -65 27
c-36 15 -80 30 -97 34 l-33 7 0 -55z"/>
<path d="M29632 26068 c-30 -30 -3 -72 45 -66 25 3 28 7 28 38 0 32 -3 35 -30
38 -17 2 -36 -3 -43 -10z"/>
<path d="M30646 26024 c-30 -30 -13 -74 29 -74 42 0 59 44 29 74 -8 9 -22 16
-29 16 -7 0 -21 -7 -29 -16z"/>
<path d="M31250 25896 c0 -33 27 -58 59 -54 54 6 26 78 -31 78 -23 0 -28 -4
-28 -24z"/>
<path d="M34116 25894 c-15 -38 49 -89 79 -64 21 17 19 33 -8 58 -28 26 -62
29 -71 6z"/>
<path d="M29152 25798 c-7 -7 -12 -21 -12 -33 0 -12 5 -26 12 -33 29 -29 78
-7 78 35 0 35 -53 56 -78 31z"/>
<path d="M32416 25544 c-9 -8 -16 -21 -16 -28 0 -21 37 -48 62 -44 33 4 37 50
6 72 -28 20 -33 20 -52 0z"/>
<path d="M33462 25548 c-21 -21 -14 -57 14 -70 49 -23 83 23 45 61 -24 24 -42
26 -59 9z"/>
<path d="M30877 25332 c-10 -10 -17 -24 -17 -30 0 -17 30 -42 50 -42 22 0 50
25 50 45 0 19 -28 45 -49 45 -10 0 -25 -8 -34 -18z"/>
<path d="M30482 25183 c-41 -16 -32 -83 11 -83 46 0 66 59 28 80 -11 5 -21 10
-23 9 -2 0 -9 -3 -16 -6z"/>
<path d="M30662 24997 c-19 -22 -42 -97 -41 -131 0 -43 32 -121 48 -121 24 0
51 48 63 111 9 49 8 69 -4 105 -15 47 -44 62 -66 36z"/>
<path d="M31520 24202 c0 -76 -4 -102 -15 -112 -8 -7 -15 -23 -15 -35 0 -12 7
-28 15 -35 12 -10 15 -46 15 -205 0 -166 -3 -198 -17 -224 -17 -30 -17 -32 0
-62 24 -43 26 -369 2 -389 -19 -16 -19 -54 -1 -69 10 -8 15 -48 18 -144 7
-200 27 -222 27 -30 1 123 4 157 18 181 16 28 16 31 0 55 -24 37 -26 377 -2
397 8 7 15 20 15 30 0 10 -7 23 -15 30 -24 20 -22 400 2 436 15 24 15 28 0 57
-11 21 -18 62 -19 121 -2 61 -7 91 -15 94 -10 3 -13 -21 -13 -96z"/>
<path d="M31635 24288 c-3 -7 -6 -545 -8 -1196 l-2 -1182 50 0 50 0 -3 1182
-2 1183 -27 13 c-15 6 -33 12 -40 12 -8 0 -16 -6 -18 -12z"/>
<path d="M34240 24291 c-26 -4 -36 -12 -38 -28 -5 -34 15 -63 43 -63 l25 0 0
-230 0 -230 -26 0 c-25 0 -26 -1 -19 -49 4 -31 3 -51 -4 -55 -6 -4 -49 -10
-96 -13 l-85 -6 0 -94 c0 -93 0 -94 23 -87 37 12 128 5 207 -16 41 -11 78 -20
83 -20 4 0 7 200 7 444 l0 444 -22 6 c-26 7 -48 6 -98 -3z"/>
<path d="M33240 24264 c0 -14 -5 -34 -10 -45 -8 -15 -7 -19 5 -19 11 0 15 11
15 45 0 25 -2 45 -5 45 -3 0 -5 -12 -5 -26z"/>
<path d="M34440 24196 c0 -71 -4 -97 -15 -106 -8 -7 -15 -23 -15 -35 0 -12 7
-28 15 -35 12 -10 15 -46 15 -205 0 -166 -3 -198 -17 -224 -17 -30 -17 -32 0
-62 24 -43 26 -369 2 -389 -19 -16 -19 -54 0 -70 10 -8 15 -38 17 -103 2 -61
7 -92 16 -95 9 -3 12 19 12 86 0 67 4 98 17 120 16 28 16 31 0 55 -24 37 -26
377 -2 397 8 7 15 20 15 30 0 10 -7 23 -15 30 -12 10 -15 47 -15 212 0 170 2
202 17 225 16 24 16 27 0 55 -13 22 -17 53 -17 119 0 72 -3 89 -15 89 -12 0
-15 -17 -15 -94z"/>
<path d="M34550 23556 c0 -662 2 -735 16 -747 9 -7 20 -22 24 -34 5 -11 9 325
9 748 l1 767 -25 0 -25 0 0 -734z"/>
<path d="M31800 24195 c0 -55 -5 -96 -14 -114 -13 -24 -13 -31 0 -56 22 -42
20 -406 -2 -440 -15 -23 -15 -27 0 -50 23 -34 24 -374 1 -408 -13 -20 -13 -26
0 -51 12 -22 15 -70 15 -211 0 -141 -3 -189 -15 -211 -13 -25 -13 -31 0 -51
22 -33 22 -393 0 -426 -13 -20 -13 -26 1 -52 11 -22 14 -54 12 -122 -3 -87 -2
-93 17 -93 19 0 20 6 17 90 -3 69 0 95 12 112 20 28 20 62 1 78 -12 10 -15 45
-15 200 0 155 3 190 15 200 8 7 15 23 15 36 0 12 -7 29 -15 38 -12 12 -15 49
-15 201 0 152 3 189 15 201 8 9 15 26 15 38 0 13 -7 29 -15 36 -12 10 -15 44
-15 190 0 146 3 180 15 190 8 7 15 25 15 40 0 15 -7 33 -15 40 -12 10 -15 46
-15 207 0 159 3 197 15 209 8 9 15 26 15 38 0 13 -7 29 -15 36 -11 9 -15 35
-15 101 0 72 -3 89 -15 89 -12 0 -15 -16 -15 -85z"/>
<path d="M31918 23081 l-3 -1171 110 1 c61 1 102 3 93 6 -13 3 -18 15 -18 42
0 35 3 39 31 45 17 3 166 6 330 6 l299 0 0 180 0 180 -107 0 c-60 0 -125 3
-145 6 l-38 7 0 223 0 224 130 0 129 0 -24 26 c-44 47 -44 115 -2 162 l20 22
-31 0 c-88 0 -136 136 -72 200 20 20 20 20 -8 20 -16 0 -37 7 -48 15 -10 8
-36 15 -56 15 l-37 0 -4 128 c-3 70 -8 144 -12 166 -5 24 -3 53 6 79 12 35 11
41 -1 45 -8 3 -30 20 -47 38 -27 26 -33 40 -33 76 0 24 7 53 15 64 20 26 19
34 -5 34 -76 0 -136 102 -100 169 8 17 5 18 -33 14 -52 -5 -104 24 -120 68
l-12 30 -66 -7 c-64 -6 -67 -5 -102 26 l-37 32 -2 -1171z"/>
<path d="M32953 24231 c-24 -9 -43 -19 -43 -23 0 -4 25 -8 55 -8 55 0 55 0 44
23 -6 12 -12 22 -13 23 0 0 -20 -7 -43 -15z"/>
<path d="M32360 24191 c0 -5 -2 -16 -5 -23 -4 -11 3 -13 30 -10 75 9 135 -43
135 -117 0 -23 -7 -53 -16 -66 -16 -24 -15 -25 5 -25 35 0 79 -28 96 -60 20
-38 19 -100 -2 -129 l-16 -24 54 6 c30 4 69 7 87 7 l32 0 0 225 0 225 -200 0
c-115 0 -200 -4 -200 -9z"/>
<path d="M32860 23581 l0 -241 55 0 55 0 -2 238 -3 237 -52 3 -53 3 0 -240z"/>
<path d="M33310 23785 c-7 -22 -9 -55 -5 -83 3 -26 6 -71 6 -99 -1 -104 -1
-134 2 -175 1 -24 -2 -53 -6 -65 -8 -21 -6 -23 33 -23 l40 0 -2 238 -3 237
-27 3 c-22 3 -28 -2 -38 -33z"/>
<path d="M33100 23720 c0 -12 -9 -31 -20 -43 -12 -12 -23 -32 -27 -45 -6 -26
20 -92 37 -92 5 0 10 -9 10 -21 0 -11 4 -17 11 -14 6 5 4 16 -7 33 -26 40 -22
104 8 145 25 32 26 34 7 45 -16 11 -19 9 -19 -8z"/>
<path d="M34338 23300 c-10 -13 -18 -34 -18 -45 0 -12 -11 -32 -25 -45 -24
-23 -25 -27 -25 -172 l0 -148 40 0 c24 0 43 5 46 13 2 7 3 105 2 217 -3 198
-4 204 -20 180z"/>
<path d="M34572 22699 l-23 -28 22 -11 c27 -15 31 -10 27 32 l-3 35 -23 -28z"/>
<path d="M31560 22650 c0 -8 5 -22 10 -30 9 -13 10 -13 10 0 0 8 -5 22 -10 30
-9 13 -10 13 -10 0z"/>
<path d="M31520 22301 c0 -75 -4 -101 -15 -111 -20 -16 -19 -54 1 -71 12 -10
15 -31 12 -111 -3 -92 -2 -98 17 -98 19 0 20 6 17 98 -3 80 0 101 12 111 20
17 20 40 1 65 -11 14 -15 47 -15 118 0 80 -3 98 -15 98 -12 0 -15 -18 -15 -99z"/>
<path d="M32914 21996 c-3 -8 -4 -29 -2 -48 l3 -33 62 -3 62 -3 20 47 c12 26
21 48 21 50 0 2 -36 4 -80 4 -60 0 -82 -4 -86 -14z"/>
<path d="M33330 21928 c-58 -22 -114 -42 -125 -45 -62 -16 -285 -108 -282
-116 1 -5 50 -25 107 -43 58 -19 114 -38 125 -43 11 -5 42 -15 69 -22 l50 -13
72 77 c76 81 132 173 114 191 -5 5 -10 18 -10 27 0 10 -3 20 -7 22 -5 3 -55
-13 -113 -35z"/>
<path d="M34076 21562 c-9 -17 -16 -37 -16 -45 0 -7 -6 -21 -13 -30 -11 -16
-22 -14 -150 33 -76 29 -144 50 -151 47 -12 -5 -116 -153 -116 -166 0 -21 419
-81 563 -81 107 0 119 8 84 54 -23 30 -152 183 -177 210 -5 4 -15 -5 -24 -22z"/>
<path d="M22511 21319 c-13 -5 -36 -18 -52 -30 -27 -19 -29 -25 -29 -87 l0
-66 38 36 c57 54 76 61 104 39 21 -17 23 -27 22 -98 -2 -90 -35 -204 -115
-391 -48 -112 -50 -118 -47 -201 l3 -86 66 130 c130 255 199 459 199 592 0 81
-14 119 -56 152 -29 23 -90 27 -133 10z"/>
<path d="M45058 21303 l-48 -26 0 -66 0 -65 33 31 c64 61 96 64 117 12 29 -69
-12 -244 -109 -470 -40 -93 -42 -101 -39 -185 l3 -89 71 145 c133 269 185 428
187 565 0 57 -4 89 -16 112 -35 66 -118 81 -199 36z"/>
<path d="M27298 21211 c-26 -16 -65 -53 -87 -81 l-41 -52 1 -96 c0 -94 1 -96
17 -72 48 70 161 217 176 230 16 13 20 12 32 -5 74 -101 25 -341 -145 -706
-76 -162 -81 -178 -81 -239 1 -60 2 -64 16 -45 27 36 162 309 209 423 70 171
96 278 102 417 6 135 -5 194 -42 231 -35 35 -97 33 -157 -5z"/>
<path d="M41697 21053 c-4 -3 -7 -25 -7 -48 l0 -41 79 -11 c95 -12 148 -37
178 -82 29 -43 29 -71 -1 -144 -34 -82 -78 -152 -173 -275 l-83 -106 0 -131 1
-130 80 85 c243 256 369 500 345 662 -16 105 -106 184 -242 213 -72 15 -166
20 -177 8z"/>
<path d="M38113 21013 c-7 -2 -13 -20 -13 -38 0 -33 0 -33 40 -28 52 7 97 -12
118 -51 28 -51 22 -257 -12 -421 -27 -132 -88 -361 -126 -469 -18 -53 -20 -83
-19 -290 l1 -231 33 72 c76 162 182 484 230 698 114 509 48 768 -195 764 -25
0 -51 -3 -57 -6z"/>
<path d="M20564 20878 c-48 -44 -180 -233 -189 -271 -3 -12 -4 -77 -3 -144 l3
-122 69 122 c80 141 207 340 213 333 7 -7 -95 -223 -193 -408 l-94 -176 0 -83
0 -83 45 72 c115 184 265 470 325 618 30 74 31 83 19 109 -16 34 -82 74 -122
75 -19 0 -42 -13 -73 -42z"/>
<path d="M30668 20881 c-28 -36 -70 -45 -270 -62 l-148 -13 0 -56 0 -56 83 8
c255 24 427 84 427 148 0 62 -52 80 -92 31z"/>
<path d="M24973 20733 c-44 -76 -104 -181 -132 -234 l-51 -96 0 -188 0 -188
121 7 121 7 -22 -38 c-13 -21 -68 -107 -122 -192 l-99 -154 3 -80 3 -80 76
109 c42 60 102 150 133 200 l56 91 0 137 0 138 -47 -6 c-27 -3 -79 -8 -117
-11 l-68 -7 116 225 117 225 -3 137 -3 136 -82 -138z"/>
<path d="M29096 20820 c-15 -27 -31 -52 -36 -55 -6 -4 -10 -67 -10 -143 l0
-137 47 83 47 82 128 0 128 0 0 59 0 58 -37 7 c-21 3 -62 6 -91 6 -41 0 -54 4
-59 18 -9 27 -55 72 -73 72 -10 0 -28 -21 -44 -50z"/>
<path d="M40905 20774 c-38 -20 -105 -56 -147 -81 l-78 -45 0 -49 c0 -27 2
-49 4 -49 2 0 24 12 50 26 25 14 46 22 46 19 0 -4 -23 -47 -50 -96 l-51 -87 3
-128 3 -128 93 181 c50 99 92 191 92 205 0 23 -24 66 -44 80 -6 4 3 14 20 23
145 81 134 71 134 120 0 25 -1 45 -2 45 -2 -1 -34 -17 -73 -36z"/>
<path d="M37474 20696 c-116 -91 -124 -105 -124 -210 l0 -87 99 120 c55 65
104 122 110 126 12 7 15 115 3 115 -4 0 -44 -29 -88 -64z"/>
<path d="M28097 20695 c-220 -37 -324 -102 -289 -180 17 -37 54 -33 99 13 41
41 62 48 241 73 l82 11 0 49 c0 57 2 56 -133 34z"/>
<path d="M37492 20516 c-40 -60 -89 -140 -108 -177 -33 -66 -34 -73 -34 -176
l1 -108 50 99 c27 55 76 143 109 197 l61 97 -3 89 -3 88 -73 -109z"/>
<path d="M21883 20431 l-93 -185 1 -175 0 -176 31 65 c16 36 59 130 94 209
l65 144 -3 151 -3 151 -92 -184z"/>
<path d="M44455 20435 l-90 -180 -2 -180 -2 -180 34 70 c19 39 61 132 95 207
l61 137 -3 153 -3 153 -90 -180z"/>
<path d="M19440 20528 l1 -43 25 29 c28 32 27 50 -4 54 -20 3 -22 -1 -22 -40z"/>
<path d="M39138 20336 c-38 -14 -121 -70 -151 -104 -15 -16 -17 -34 -15 -101
l3 -82 39 50 c53 71 144 161 161 161 23 0 27 -34 11 -107 -18 -87 -56 -172
-146 -324 -71 -119 -71 -120 -68 -185 l3 -66 74 112 c220 333 292 577 188 640
-37 23 -49 24 -99 6z"/>
<path d="M25717 20233 c-4 -3 -7 -39 -7 -79 l0 -73 43 -5 c87 -12 309 -25 323
-19 32 12 12 108 -34 156 l-26 27 -146 0 c-81 0 -150 -3 -153 -7z"/>
<path d="M23844 20137 c-9 -26 -1 -49 26 -68 26 -19 182 -49 258 -49 l42 0 0
48 0 48 -112 13 c-62 6 -134 14 -160 18 -38 4 -49 2 -54 -10z"/>
<path d="M39944 20033 c-71 -94 -99 -146 -124 -231 -24 -80 -23 -136 4 -177
23 -35 87 -35 121 0 28 27 33 76 10 95 -25 20 -18 85 15 151 28 55 31 67 28
145 l-3 86 -51 -69z"/>
<path d="M26564 19965 c-29 -61 -78 -175 -110 -255 l-59 -145 -3 -150 c-2 -82
-2 -175 0 -205 l3 -55 33 95 c19 52 70 190 113 307 l80 212 -3 153 -3 153 -51
-110z"/>
<path d="M21895 19689 c-108 -164 -106 -161 -103 -227 l3 -57 93 138 92 138 0
64 c0 36 -1 65 -3 65 -2 0 -39 -55 -82 -121z"/>
<path d="M44453 19665 c-90 -136 -93 -142 -93 -198 0 -36 4 -56 10 -52 5 3 48
64 95 135 l86 128 -3 63 -3 64 -92 -140z"/>
<path d="M36788 19643 c-91 -232 -162 -485 -194 -692 -22 -143 -22 -380 0
-486 31 -146 107 -270 190 -309 53 -25 56 -22 56 52 0 55 -5 74 -24 102 -97
144 -99 456 -5 866 29 127 29 136 27 358 l-3 228 -47 -119z"/>
<path d="M18761 19635 c-220 -521 -328 -998 -279 -1240 13 -67 59 -141 104
-167 39 -23 109 -32 168 -24 l46 7 0 43 0 44 -64 4 c-72 4 -100 21 -122 75
-44 102 13 412 146 796 l40 118 -2 212 -3 212 -34 -80z"/>
<path d="M40828 19551 l-147 -116 -1 -78 0 -77 28 17 c54 34 252 176 262 188
6 8 10 49 8 98 l-3 84 -147 -116z"/>
<path d="M22280 19546 c0 -64 3 -116 6 -116 17 0 64 44 78 74 19 41 21 105 3
129 -6 10 -29 20 -50 24 l-37 6 0 -117z"/>
<path d="M24120 19546 c0 -64 4 -116 9 -116 16 0 61 42 76 70 19 37 20 124 1
139 -8 7 -30 15 -50 18 l-36 6 0 -117z"/>
<path d="M38378 19375 c-31 -55 -79 -145 -107 -199 l-51 -99 0 -228 0 -227 24
-16 c28 -17 81 -84 74 -91 -4 -5 -45 6 -80 20 -16 6 -18 1 -18 -48 l0 -56 58
-6 c31 -3 64 -7 72 -8 21 -3 29 -83 19 -178 -11 -99 -60 -284 -110 -417 -39
-105 -40 -108 -37 -227 l3 -120 52 105 c59 120 111 253 142 361 19 68 21 101
21 340 l0 265 -28 45 c-32 49 -100 114 -138 131 -13 6 -24 14 -24 17 0 4 43
49 95 101 l95 95 0 55 0 55 -100 -100 c-55 -55 -100 -95 -100 -89 0 5 4 14 9
20 5 5 50 85 100 178 l92 168 -3 127 -3 126 -57 -100z"/>
<path d="M29621 19303 l1 -128 30 63 c42 88 47 135 17 167 -44 46 -49 36 -48
-102z"/>
<path d="M34031 19303 c0 -115 1 -126 14 -109 23 31 55 123 55 159 0 31 -35
77 -58 77 -7 0 -11 -46 -11 -127z"/>
<path d="M43191 19298 l1 -133 33 70 c47 100 50 127 19 165 -47 55 -53 44 -53
-102z"/>
<path d="M26502 19223 l-113 -155 3 -55 3 -56 96 129 c134 181 131 173 127
237 l-3 55 -113 -155z"/>
<path d="M32210 19341 c-14 -5 -44 -18 -67 -30 l-43 -21 0 -82 0 -81 23 20
c12 12 46 35 75 53 l52 32 0 59 c0 32 -3 59 -7 58 -5 0 -19 -4 -33 -8z"/>
<path d="M35657 19330 c-74 -29 -77 -33 -77 -116 l0 -74 68 44 67 44 3 61 c2
34 -1 61 -5 61 -4 -1 -30 -9 -56 -20z"/>
<path d="M39931 19283 c-159 -94 -261 -213 -261 -303 1 -79 38 -105 153 -103
69 0 77 -1 71 -16 -43 -103 -133 -353 -164 -456 -130 -429 -123 -551 33 -580
49 -9 84 0 98 27 10 19 8 25 -22 50 l-34 29 1 92 c2 114 20 184 118 448 l76
203 -1 210 0 211 -23 -51 c-26 -57 -36 -63 -121 -71 -50 -4 -64 -2 -84 14 -23
18 -23 20 -8 50 21 39 82 92 170 146 l67 42 0 47 c0 27 -1 48 -3 48 -1 0 -31
-17 -66 -37z"/>
<path d="M19573 19025 l-133 -170 0 -63 c0 -35 4 -61 8 -58 5 3 46 50 92 105
46 55 85 99 87 98 1 -2 -11 -50 -28 -107 -111 -388 -115 -707 -9 -812 31 -32
44 -38 79 -38 l41 0 0 51 c0 35 -6 60 -20 78 -52 75 -52 212 1 491 17 90 19
139 17 350 l-3 245 -132 -170z"/>
<path d="M33311 19148 l-31 -32 1 -180 0 -181 24 50 c74 151 135 290 135 305
0 10 -9 29 -21 44 -29 37 -68 35 -108 -6z"/>
<path d="M21296 19028 c-37 -108 -58 -154 -87 -190 -30 -35 -39 -55 -39 -84 0
-33 2 -35 17 -23 15 12 16 12 11 -2 -12 -31 -57 -244 -68 -314 -22 -158 -7
-290 41 -341 46 -49 136 -39 159 16 14 35 7 50 -25 50 -76 0 -73 93 16 486 28
125 29 139 27 338 l-3 207 -49 -143z"/>
<path d="M23390 19154 c-14 -10 -49 -40 -77 -68 -51 -49 -53 -52 -53 -105 l0
-54 23 21 c37 35 39 26 7 -38 l-30 -59 0 -213 0 -213 39 115 c22 63 73 204
115 314 85 222 92 262 50 295 -32 25 -42 26 -74 5z"/>
<path d="M43904 19130 c-54 -164 -105 -295 -122 -313 -15 -16 -21 -39 -24 -87
-3 -36 -17 -123 -33 -195 -38 -178 -41 -358 -7 -423 28 -53 74 -78 126 -68 37
7 66 37 66 69 0 18 -5 21 -52 31 -54 12 -49 94 23 421 l40 180 -3 210 c-3 174
-5 204 -14 175z"/>
<path d="M22014 19117 c-2 -7 -3 -67 -2 -133 l3 -119 38 88 c20 49 37 99 37
111 0 36 -65 81 -76 53z"/>
<path d="M23861 19003 l1 -118 30 65 c40 85 47 138 23 157 -11 7 -27 13 -37
13 -16 0 -18 -10 -17 -117z"/>
<path d="M30408 19075 l-48 -35 0 -98 1 -97 49 54 50 55 0 78 c0 43 -1 78 -2
78 -2 0 -24 -16 -50 -35z"/>
<path d="M34855 19098 c-11 -6 -35 -24 -52 -41 -33 -31 -33 -32 -33 -121 l1
-91 54 58 55 58 0 74 c0 41 -1 75 -2 75 -2 0 -12 -6 -23 -12z"/>
<path d="M41370 19078 l-45 -34 -3 -99 -2 -100 45 50 c53 59 57 71 53 154 l-3
64 -45 -35z"/>
<path d="M25130 19064 l-40 -36 0 -92 1 -91 49 53 50 53 0 75 c0 42 -4 74 -10
74 -5 0 -28 -16 -50 -36z"/>
<path d="M28171 18975 c-165 -397 -252 -700 -255 -885 -1 -109 14 -148 67
-180 35 -22 106 -26 138 -10 27 15 24 54 -5 73 -36 24 -50 77 -42 159 10 96
56 279 111 435 l45 131 -2 204 -3 203 -54 -130z"/>
<path d="M20633 19050 l-43 -19 0 -56 0 -57 49 36 c53 39 81 46 81 18 0 -9
-16 -91 -35 -181 -36 -168 -43 -262 -24 -305 9 -20 70 -56 94 -56 3 0 5 140 5
310 l0 310 -26 10 c-36 14 -53 12 -101 -10z"/>
<path d="M29620 18992 c0 -36 5 -62 11 -64 9 -3 9 -9 0 -25 -6 -13 -11 -68
-11 -129 0 -126 -5 -127 94 20 64 96 66 101 66 163 0 73 -6 78 -106 89 l-54 7
0 -61z"/>
<path d="M34030 18991 c0 -49 3 -61 16 -61 15 0 15 -2 0 -25 -12 -19 -16 -50
-16 -136 0 -130 -9 -133 104 36 65 96 67 102 64 155 -3 64 -17 75 -111 86
l-57 7 0 -62z"/>
<path d="M43190 18991 c0 -49 3 -61 16 -61 15 0 15 -2 0 -25 -13 -20 -16 -47
-14 -137 l3 -111 83 122 c82 122 83 124 80 179 -4 66 -17 77 -111 88 l-57 7 0
-62z"/>
<path d="M22733 19015 c-41 -25 -43 -28 -43 -76 l0 -50 27 20 c14 12 28 20 30
18 2 -2 -10 -48 -27 -102 -28 -92 -30 -106 -30 -271 0 -166 1 -174 21 -184 33
-18 64 -4 108 51 37 46 41 57 41 107 l0 56 -30 -29 c-16 -16 -30 -26 -30 -23
0 4 14 66 30 138 27 113 30 147 28 248 l-3 117 -40 3 c-29 2 -52 -5 -82 -23z"/>
<path d="M31190 19017 l-45 -24 -3 -67 -3 -68 47 34 c55 39 56 42 52 102 l-3
47 -45 -24z"/>
<path d="M36158 18974 c-70 -58 -78 -68 -78 -99 0 -19 3 -35 8 -35 9 0 172
130 190 152 17 21 5 48 -22 48 -11 -1 -56 -30 -98 -66z"/>
<path d="M42145 19017 c-40 -22 -40 -23 -43 -90 l-3 -68 51 38 c49 37 50 38
50 90 0 29 -3 53 -7 53 -5 0 -26 -11 -48 -23z"/>
<path d="M25799 18953 c-67 -70 -116 -144 -172 -260 -52 -108 -59 -172 -27
-238 38 -79 113 -96 208 -49 l52 26 0 49 c0 27 -2 49 -3 49 -2 0 -28 -13 -58
-30 -71 -39 -79 -38 -79 10 0 53 31 131 91 231 l50 83 -3 94 -3 94 -56 -59z"/>
<path d="M20148 18875 c-108 -231 -166 -407 -154 -467 19 -95 62 -88 146 22
l60 79 -2 233 -3 232 -47 -99z"/>
<path d="M24141 18893 c-30 -102 -71 -351 -71 -429 0 -88 17 -159 47 -194 53
-63 53 -62 53 335 0 201 -2 365 -3 365 -2 0 -14 -35 -26 -77z"/>
<path d="M32622 18924 c-13 -9 -22 -26 -22 -41 0 -14 -18 -73 -39 -132 -86
-233 -73 -341 41 -341 38 0 38 0 38 40 0 33 -3 40 -20 40 -17 0 -19 4 -14 28
4 15 12 38 18 52 7 17 27 370 21 370 0 0 -11 -7 -23 -16z"/>
<path d="M31518 18909 l-28 -21 0 -146 0 -147 30 63 c16 34 47 93 70 131 45
77 49 100 22 124 -25 23 -61 21 -94 -4z"/>
<path d="M42471 18904 l-31 -26 0 -146 0 -147 53 106 c29 58 63 120 76 137 22
32 22 60 -1 90 -17 20 -64 14 -97 -14z"/>
<path d="M39053 18821 c-78 -74 -83 -81 -83 -120 0 -37 2 -41 18 -32 38 20
154 136 172 172 26 49 25 59 -2 59 -14 -1 -54 -30 -105 -79z"/>
<path d="M22246 18748 c-82 -175 -137 -317 -143 -368 -5 -40 -2 -51 16 -69 41
-41 77 -26 145 57 l34 42 1 220 c1 121 0 220 -2 220 -2 0 -25 -46 -51 -102z"/>
<path d="M25137 18787 c-44 -39 -47 -45 -47 -89 0 -56 9 -59 63 -23 36 25 37
27 37 90 0 36 -1 65 -2 65 -2 -1 -24 -20 -51 -43z"/>
<path d="M30408 18789 c-45 -39 -48 -44 -48 -90 0 -27 3 -49 7 -49 3 0 26 11
50 25 l43 26 0 64 c0 36 -1 65 -2 65 -2 -1 -24 -19 -50 -41z"/>
<path d="M34818 18787 c-44 -40 -48 -47 -48 -90 0 -57 10 -59 68 -17 41 30 42
31 42 90 0 33 -3 60 -7 60 -5 -1 -29 -20 -55 -43z"/>
<path d="M41368 18793 c-45 -36 -47 -40 -48 -90 0 -29 4 -53 8 -53 5 0 28 14
50 30 41 30 42 31 42 90 0 33 -1 60 -3 60 -1 0 -23 -17 -49 -37z"/>
<path d="M21798 18715 c-79 -239 -76 -445 8 -483 14 -7 28 -11 30 -9 3 2 3
139 2 303 l-3 299 -37 -110z"/>
<path d="M23643 18730 c-64 -190 -81 -391 -40 -454 18 -27 64 -62 72 -54 3 3
4 140 3 304 l-3 299 -32 -95z"/>
<path d="M29125 18723 c-52 -53 -95 -101 -95 -105 0 -14 52 3 90 27 19 13 52
39 73 59 31 29 37 42 37 75 0 23 -2 41 -5 41 -3 0 -48 -44 -100 -97z"/>
<path d="M33536 18721 c-55 -55 -98 -103 -95 -106 11 -10 71 15 117 49 73 53
84 68 80 115 l-3 42 -99 -100z"/>
<path d="M42702 18727 c-50 -51 -92 -96 -92 -100 0 -4 11 -7 24 -7 27 0 85 37
139 88 30 29 37 43 37 74 0 21 -3 38 -8 38 -4 0 -49 -42 -100 -93z"/>
<path d="M32953 18748 c-50 -51 -53 -56 -53 -106 0 -29 4 -52 8 -52 4 0 29 22
55 48 47 48 48 50 45 106 l-3 57 -52 -53z"/>
<path d="M24822 18747 c-18 -18 -32 -40 -32 -49 0 -9 -9 -36 -19 -61 -11 -25
-25 -79 -32 -120 -11 -67 -11 -80 5 -121 20 -51 57 -86 92 -86 l24 0 0 235 c0
129 -1 235 -3 235 -2 0 -17 -15 -35 -33z"/>
<path d="M25497 18712 c-54 -54 -58 -62 -55 -98 l3 -39 68 67 c57 55 68 71 65
94 -2 15 -8 29 -13 31 -6 2 -37 -23 -68 -55z"/>
<path d="M30100 18741 c-65 -92 -111 -247 -96 -325 9 -49 63 -106 100 -106
l26 0 0 230 c0 127 -2 230 -4 230 -3 0 -14 -13 -26 -29z"/>
<path d="M30766 18714 c-53 -51 -57 -58 -54 -96 l3 -41 56 51 c58 53 86 100
75 127 -9 24 -20 18 -80 -41z"/>
<path d="M34495 18711 c-65 -107 -95 -226 -76 -298 14 -53 61 -103 95 -103
l26 0 0 230 c0 127 -2 230 -4 230 -3 0 -21 -27 -41 -59z"/>
<path d="M35177 18712 c-54 -54 -58 -62 -55 -98 l3 -39 68 67 c57 55 68 71 65
94 -2 15 -8 29 -13 31 -6 2 -37 -23 -68 -55z"/>
<path d="M41049 18727 c-65 -104 -91 -180 -90 -270 0 -77 51 -147 106 -147 13
0 15 36 15 230 0 127 -1 230 -2 230 -2 0 -15 -19 -29 -43z"/>
<path d="M41719 18713 c-52 -49 -59 -61 -59 -95 0 -21 4 -38 8 -38 4 0 36 28
70 61 52 51 62 67 62 95 0 19 -5 34 -11 34 -6 0 -37 -25 -70 -57z"/>
<path d="M30857 18698 c-73 -112 -96 -184 -77 -242 14 -44 53 -76 91 -76 l29
0 0 185 c0 102 -2 185 -4 185 -2 0 -20 -24 -39 -52z"/>
<path d="M37525 18687 c-22 -34 -71 -103 -108 -154 l-68 -92 3 -61 3 -60 55
52 c30 29 79 81 108 116 l52 63 0 100 c0 54 -1 99 -2 99 -2 -1 -21 -29 -43
-63z"/>
<path d="M41820 18709 c-36 -50 -78 -137 -86 -178 -16 -77 32 -155 90 -149
l31 3 3 183 c1 100 0 182 -3 182 -3 0 -18 -19 -35 -41z"/>
<path d="M32182 18635 c-34 -19 -64 -35 -66 -35 -3 0 -7 8 -9 18 -3 9 -4 -26
-4 -78 0 -52 2 -81 4 -65 4 25 17 38 74 73 66 42 69 45 69 83 0 21 -1 39 -2
39 -2 0 -31 -16 -66 -35z"/>
<path d="M35648 18631 l-68 -36 0 -48 0 -48 58 37 c79 50 84 56 80 96 l-3 36
-67 -37z"/>
<path d="M31188 18627 c-39 -30 -43 -38 -46 -80 -2 -26 0 -47 3 -47 4 0 27 14
51 32 42 30 44 34 44 80 0 26 -2 48 -4 48 -3 0 -24 -15 -48 -33z"/>
<path d="M42143 18627 c-39 -30 -42 -35 -43 -81 l0 -48 28 17 c59 38 72 57 72
102 0 24 -3 43 -7 43 -5 0 -27 -15 -50 -33z"/>
<path d="M26550 18534 c-30 -19 -79 -42 -107 -51 -52 -16 -53 -18 -53 -55 0
-33 3 -38 23 -38 26 0 127 50 174 86 26 20 33 32 33 60 0 18 -3 34 -7 33 -5
-1 -33 -16 -63 -35z"/>
<path d="M30408 18454 c-43 -22 -48 -28 -48 -59 0 -19 2 -35 5 -35 2 0 25 10
50 22 42 20 45 25 45 60 0 21 -1 38 -2 38 -2 -1 -24 -12 -50 -26z"/>
<path d="M34823 18452 c-48 -24 -53 -29 -53 -60 0 -30 2 -33 23 -27 12 4 37
16 55 27 26 16 32 26 32 54 0 19 -1 34 -2 33 -2 0 -27 -12 -55 -27z"/>
<path d="M41368 18454 c-43 -22 -48 -28 -48 -59 0 -19 2 -35 5 -35 16 0 87 43
91 55 3 7 4 25 2 38 l-3 25 -47 -24z"/>
<path d="M25128 18448 c-32 -18 -38 -27 -38 -55 0 -18 3 -33 7 -33 4 0 26 9
50 21 38 18 43 25 43 55 0 40 -10 42 -62 12z"/>
<path d="M34113 18419 l-83 -50 0 -55 c0 -30 4 -54 8 -54 9 0 111 66 145 93
14 12 17 26 15 65 l-3 51 -82 -50z"/>
<path d="M29693 18414 l-73 -46 0 -54 c0 -30 4 -54 8 -54 5 0 40 21 78 48 l69
47 3 53 c2 28 -1 52 -5 52 -4 0 -41 -21 -80 -46z"/>
<path d="M43267 18413 l-77 -47 0 -53 c0 -29 4 -53 8 -53 13 0 105 60 135 88
21 20 27 35 27 69 0 24 -3 43 -8 43 -4 0 -42 -21 -85 -47z"/>
<path d="M31689 18322 c-82 -76 -113 -137 -106 -201 6 -55 26 -71 90 -71 71 0
87 12 87 64 0 41 -1 42 -29 38 -51 -7 -49 31 6 89 21 23 24 34 21 85 l-3 58
-66 -62z"/>
<path d="M23260 18323 c0 -55 6 -61 41 -43 26 14 24 47 -3 61 -13 7 -26 17
-30 23 -4 6 -8 -13 -8 -41z"/>
<path d="M35152 18313 c-71 -70 -95 -113 -96 -174 -1 -64 22 -89 83 -89 81 0
91 6 91 56 0 41 -1 43 -32 46 -41 4 -40 26 3 80 23 30 29 47 29 87 0 28 -4 51
-10 51 -5 0 -36 -26 -68 -57z"/>
<path d="M31490 18236 c0 -19 4 -24 15 -19 18 6 16 34 -2 41 -8 2 -13 -6 -13
-22z"/>
<path d="M42440 18235 c0 -27 6 -30 29 -16 12 8 12 12 2 25 -19 23 -31 20 -31
-9z"/>
<path d="M37656 17870 c-124 -320 -203 -610 -213 -791 -10 -174 21 -253 119
-304 l55 -28 46 22 47 23 0 66 0 66 -28 -27 c-42 -40 -66 -36 -87 16 -24 59
-30 152 -16 260 16 118 32 181 87 348 l44 137 -2 168 -3 169 -49 -125z"/>
<path d="M25680 16786 l0 -686 50 0 50 0 0 66 0 67 50 -47 c94 -88 223 -123
352 -97 220 46 358 237 358 498 0 116 -13 179 -56 270 -43 91 -112 161 -201
205 -65 32 -72 33 -183 33 -103 0 -121 -3 -170 -26 -30 -14 -76 -46 -102 -72
l-48 -46 -2 257 -3 257 -47 3 -48 3 0 -685z m532 256 c257 -114 310 -628 86
-838 -68 -64 -126 -87 -214 -87 -117 1 -195 47 -266 157 l-38 59 0 256 0 256
29 51 c39 67 121 140 180 159 61 20 163 14 223 -13z"/>
<path d="M28237 17463 c-4 -3 -7 -312 -7 -685 l0 -678 460 0 c374 0 462 2 466
13 4 11 16 10 62 -7 44 -15 83 -20 172 -20 132 -1 202 17 282 70 l48 33 0 -45
0 -44 50 0 50 0 0 393 c0 447 1 439 -85 515 -77 67 -137 86 -285 87 -108 0
-134 -3 -187 -23 -102 -39 -168 -109 -188 -200 l-7 -33 53 3 c53 3 54 4 60 38
17 106 110 178 240 188 98 7 172 -18 230 -76 73 -74 87 -152 43 -240 -44 -88
-150 -142 -279 -142 -237 0 -420 -129 -403 -284 7 -59 49 -130 100 -166 l41
-30 -411 0 -412 0 0 670 0 670 -43 0 c-24 0 -47 -3 -50 -7z m1468 -1190 c-21
-55 -92 -117 -158 -139 -68 -22 -196 -22 -262 1 -177 61 -228 233 -105 356 59
59 111 76 263 88 122 10 190 32 247 79 l25 20 3 -181 c2 -148 0 -190 -13 -224z"/>
<path d="M30757 17463 c-4 -3 -7 -120 -7 -258 l0 -252 -46 45 c-26 24 -72 56
-103 71 -50 23 -68 26 -166 26 -142 -1 -199 -22 -291 -107 -242 -227 -192
-717 88 -857 164 -82 357 -60 469 55 l44 45 5 -63 5 -63 48 -3 47 -3 0 685 0
686 -43 0 c-24 0 -47 -3 -50 -7z m-185 -422 c56 -27 112 -81 149 -146 l29 -50
0 -256 0 -256 -38 -59 c-72 -111 -149 -156 -268 -157 -59 0 -82 5 -127 27
-147 71 -236 265 -224 486 11 212 112 378 261 426 58 19 163 12 218 -15z"/>
<path d="M32575 17458 c-3 -7 -4 -314 -3 -683 l3 -670 48 -3 47 -3 0 294 0
295 208 4 c187 4 213 7 267 28 110 42 171 96 223 194 24 46 27 61 27 161 0 98
-3 116 -27 167 -55 117 -174 199 -319 218 -114 15 -468 13 -474 -2z m543 -56
c66 -35 119 -88 149 -150 25 -52 28 -67 28 -172 0 -105 -2 -120 -27 -171 -34
-67 -85 -121 -147 -151 -42 -21 -62 -23 -248 -26 l-203 -3 0 351 0 351 203 -3
c188 -3 205 -5 245 -26z"/>
<path d="M35330 16785 l0 -686 48 3 47 3 5 375 5 375 28 57 c53 108 157 166
278 155 106 -9 182 -67 232 -175 21 -45 22 -61 25 -419 l3 -373 50 0 50 0 -3
373 -3 372 -26 56 c-60 127 -155 190 -300 197 -141 7 -240 -34 -309 -129 l-30
-42 -2 269 -3 269 -47 3 -48 3 0 -686z"/>
<path d="M34656 17075 c-195 -80 -280 -337 -181 -553 30 -65 71 -112 132 -151
l41 -27 -45 -13 c-66 -17 -103 -46 -103 -80 0 -59 75 -90 248 -101 141 -10
202 -27 255 -71 53 -43 79 -100 79 -169 0 -143 -111 -230 -291 -230 -90 0
-153 19 -203 60 -40 33 -78 102 -78 143 0 26 -2 27 -54 27 l-53 0 7 -37 c10
-56 34 -97 81 -137 122 -104 388 -124 548 -42 161 84 194 265 69 382 -70 66
-149 92 -320 104 -134 10 -183 28 -183 70 0 41 51 61 175 70 130 10 205 39
268 103 165 169 139 500 -47 619 l-45 28 92 0 c75 0 92 3 92 15 0 13 -30 15
-212 15 -202 0 -216 -2 -272 -25z m205 -15 c127 -35 217 -233 190 -417 -27
-184 -122 -287 -262 -286 -45 1 -69 7 -104 27 -175 103 -201 461 -45 617 64
64 135 83 221 59z"/>
<path d="M26712 16713 l3 -368 28 -61 c35 -76 94 -135 172 -171 52 -24 72 -28
155 -28 81 0 103 4 150 26 55 26 107 69 149 124 l22 30 -5 -115 c-3 -63 -13
-142 -21 -174 -32 -124 -108 -225 -203 -272 -54 -27 -211 -27 -267 1 -56 28
-114 89 -153 163 l-33 62 -46 0 c-44 0 -45 -1 -39 -27 11 -46 77 -133 132
-175 132 -99 345 -113 494 -32 64 35 140 115 175 185 59 115 58 110 62 677 l4
522 -50 0 -49 0 -4 -362 c-4 -341 -5 -366 -25 -415 -49 -122 -139 -186 -263
-186 -121 0 -204 55 -259 173 l-26 55 -3 368 -3 367 -50 0 -50 0 3 -367z"/>
<path d="M31052 16718 c4 -348 5 -365 26 -419 100 -251 454 -296 621 -78 l34
44 -6 -125 c-8 -177 -39 -269 -120 -357 -68 -74 -116 -96 -217 -101 -73 -4
-94 -1 -138 18 -63 27 -141 108 -174 181 -23 49 -23 49 -70 49 -27 0 -48 -5
-48 -10 0 -26 47 -99 97 -151 149 -156 427 -169 603 -28 53 43 105 121 138
205 l27 69 3 533 3 532 -51 0 -50 0 0 -343 c0 -271 -3 -355 -15 -400 -37 -141
-135 -220 -275 -220 -113 0 -200 55 -251 159 -24 49 -24 51 -27 427 l-3 377
-55 0 -56 0 4 -362z"/>
<path d="M33492 16713 c4 -433 4 -430 102 -529 78 -78 134 -99 261 -99 125 1
201 37 276 132 l28 35 3 -74 3 -73 50 0 50 0 3 488 2 487 -54 0 -55 0 -3 -377
c-3 -376 -3 -378 -27 -427 -51 -104 -138 -159 -251 -159 -117 0 -206 57 -256
165 l-29 63 -3 368 -3 367 -50 0 -50 0 3 -367z"/>
<path d="M25890 14665 l0 -315 70 0 c63 0 70 2 70 20 0 15 -7 20 -25 20 l-25
0 0 145 0 145 25 6 c14 3 25 12 25 19 0 7 -11 16 -25 19 -25 6 -25 8 -25 111
l0 105 25 0 c18 0 25 5 25 20 0 18 -7 20 -70 20 l-70 0 0 -315z"/>
<path d="M31120 14659 l0 -320 48 3 47 3 3 158 c1 93 6 157 12 157 6 0 10 9
10 20 0 11 -4 20 -10 20 -6 0 -10 47 -10 120 0 73 4 120 10 120 6 0 10 9 10
20 0 18 -7 20 -60 20 l-60 0 0 -321z"/>
<path d="M31460 14960 c0 -17 7 -20 40 -20 33 0 40 3 40 20 0 17 -7 20 -40 20
-33 0 -40 -3 -40 -20z"/>
<path d="M20934 14941 c-96 -58 -100 -167 -10 -229 18 -12 35 -22 39 -22 14 0
7 98 -9 130 -16 31 -16 35 0 65 10 18 16 42 14 54 -3 21 -3 21 -34 2z"/>
<path d="M21220 14930 c0 -23 13 -26 29 -6 9 11 8 15 -5 20 -23 9 -24 8 -24
-14z"/>
<path d="M39040 14930 c0 -11 17 -35 37 -54 30 -27 42 -32 56 -25 15 9 16 12
3 30 -15 22 -75 69 -88 69 -4 0 -8 -9 -8 -20z"/>
<path d="M38658 14897 c-27 -20 -54 -55 -73 -92 -27 -52 -30 -68 -29 -144 0
-72 5 -94 27 -137 24 -47 108 -134 128 -134 20 0 7 62 -22 103 -63 90 -63 237
1 340 29 47 40 97 21 97 -5 0 -29 -15 -53 -33z"/>
<path d="M26300 14840 c0 -57 3 -71 12 -62 15 15 14 110 -1 125 -8 8 -11 -9
-11 -63z"/>
<path d="M21527 14798 l68 -101 3 67 c2 54 -1 74 -18 102 -20 31 -26 34 -71
34 l-49 0 67 -102z"/>
<path d="M21890 14864 c-11 -21 -20 -49 -18 -65 3 -26 6 -24 46 37 41 63 42
64 18 64 -17 0 -30 -11 -46 -36z"/>
<path d="M22160 14620 c0 -273 0 -280 20 -280 19 0 20 7 20 237 l0 237 50 -49
50 -49 0 54 c-1 49 -5 59 -35 93 -28 29 -43 37 -70 37 l-35 0 0 -280z"/>
<path d="M22640 14685 c0 -141 -4 -215 -10 -215 -6 0 -13 6 -16 14 -3 8 -12
17 -20 20 -11 4 -14 -5 -14 -44 0 -43 5 -56 33 -87 23 -25 39 -34 50 -30 15 6
17 35 17 282 0 268 0 275 -20 275 -19 0 -20 -7 -20 -215z"/>
<path d="M22880 14625 l0 -275 50 0 c38 0 50 4 50 15 0 8 -4 15 -10 15 -6 0
-10 47 -10 120 0 73 4 120 10 120 6 0 10 9 10 20 0 11 -4 20 -10 20 -6 0 -10
40 -10 100 0 60 4 100 10 100 6 0 10 9 10 20 0 17 -7 20 -50 20 l-50 0 0 -275z"/>
<path d="M23190 14880 c0 -15 7 -20 25 -20 18 0 25 5 25 20 0 15 -7 20 -25 20
-18 0 -25 -5 -25 -20z"/>
<path d="M23450 14625 l0 -275 40 0 40 0 0 115 c0 114 0 115 25 121 31 8 33
32 3 36 -22 3 -23 7 -26 121 l-3 117 26 0 c18 0 25 5 25 20 0 18 -7 20 -65 20
l-65 0 0 -275z"/>
<path d="M24770 14896 c0 -3 28 -50 63 -103 l62 -98 3 68 c4 97 -16 131 -81
135 -26 2 -47 1 -47 -2z"/>
<path d="M25191 14860 c-12 -22 -21 -52 -19 -67 3 -27 3 -27 29 13 68 104 64
94 37 94 -18 0 -30 -10 -47 -40z"/>
<path d="M26590 14625 l0 -275 50 0 c38 0 50 4 50 15 0 8 -4 15 -10 15 -6 0
-10 47 -10 120 0 73 4 120 10 120 6 0 10 9 10 20 0 11 -4 20 -10 20 -6 0 -10
40 -10 100 0 60 4 100 10 100 6 0 10 9 10 20 0 17 -7 20 -50 20 l-50 0 0 -275z"/>
<path d="M26900 14880 c0 -15 7 -20 25 -20 18 0 25 5 25 20 0 15 -7 20 -25 20
-18 0 -25 -5 -25 -20z"/>
<path d="M27170 14880 c0 -18 7 -20 65 -20 58 0 65 2 65 20 0 18 -7 20 -65 20
-58 0 -65 -2 -65 -20z"/>
<path d="M27570 14880 c0 -17 7 -20 45 -20 38 0 45 3 45 20 0 17 -7 20 -45 20
-38 0 -45 -3 -45 -20z"/>
<path d="M27863 14888 c2 -7 49 -129 103 -272 l99 -259 3 99 3 99 -62 173 -63
172 -44 0 c-31 0 -43 -4 -39 -12z"/>
<path d="M28537 14768 c-34 -96 -47 -147 -47 -183 l1 -50 14 35 c121 321 124
330 101 330 -19 0 -28 -17 -69 -132z"/>
<path d="M28820 14625 l0 -275 55 0 c40 0 55 4 55 14 0 8 -7 16 -15 20 -12 4
-15 27 -15 121 0 96 3 115 15 115 8 0 15 9 15 20 0 11 -7 20 -15 20 -12 0 -15
18 -15 100 0 82 3 100 15 100 8 0 15 9 15 20 0 18 -7 20 -55 20 l-55 0 0 -275z"/>
<path d="M29140 14880 c0 -15 7 -20 25 -20 18 0 25 5 25 20 0 15 -7 20 -25 20
-18 0 -25 -5 -25 -20z"/>
<path d="M29400 14625 l0 -275 55 0 c40 0 55 4 55 14 0 8 -7 16 -15 20 -12 4
-15 27 -15 121 0 96 3 115 15 115 8 0 15 9 15 20 0 11 -7 20 -15 20 -12 0 -15
18 -15 100 0 82 3 100 15 100 8 0 15 9 15 20 0 18 -7 20 -55 20 l-55 0 0 -275z"/>
<path d="M29710 14880 c0 -16 7 -20 30 -20 23 0 30 4 30 20 0 16 -7 20 -30 20
-23 0 -30 -4 -30 -20z"/>
<path d="M29980 14620 c0 -273 0 -280 20 -280 19 0 20 7 20 237 l0 237 55 -54
55 -54 0 53 c0 46 -5 58 -36 97 -32 38 -41 44 -75 44 l-39 0 0 -280z"/>
<path d="M30460 14683 l0 -216 -25 23 -25 23 0 -55 c0 -46 5 -62 26 -87 14
-17 34 -31 45 -31 18 0 19 11 19 280 0 273 0 280 -20 280 -19 0 -20 -7 -20
-217z"/>
<path d="M33000 14619 l0 -280 38 3 37 3 3 127 3 127 29 6 c40 9 40 35 0 35
l-30 0 0 130 0 130 -40 0 -40 0 0 -281z"/>
<path d="M33429 14768 c-1 -174 2 -412 6 -416 1 -2 19 -6 39 -9 l36 -6 0 282
0 281 -40 0 -40 0 -1 -132z"/>
<path d="M33710 14619 c0 -220 3 -280 13 -277 9 4 13 71 15 281 2 242 0 277
-13 277 -13 0 -15 -37 -15 -281z"/>
<path d="M33784 14625 c0 -154 2 -216 3 -137 2 79 2 205 0 280 -1 75 -3 11 -3
-143z"/>
<path d="M34800 14619 c0 -262 1 -280 18 -277 15 3 17 25 22 238 l5 234 47
-55 48 -54 0 57 c0 53 -3 62 -36 98 -29 32 -43 40 -70 40 l-34 0 0 -281z"/>
<path d="M35270 14683 l0 -216 -25 23 -25 23 0 -54 c0 -46 4 -59 31 -86 59
-64 59 -63 59 247 0 273 0 280 -20 280 -19 0 -20 -7 -20 -217z"/>
<path d="M36680 14620 c0 -273 0 -280 20 -280 19 0 20 7 20 237 l0 237 55 -54
55 -54 0 53 c0 47 -5 60 -36 97 -31 38 -40 44 -75 44 l-39 0 0 -280z"/>
<path d="M37160 14683 l0 -216 -25 23 -25 23 0 -53 c0 -42 6 -60 26 -87 14
-18 34 -33 45 -33 18 0 19 9 19 280 0 273 0 280 -20 280 -19 0 -20 -7 -20
-217z"/>
<path d="M37400 14625 l0 -275 75 0 c60 0 75 3 75 15 0 10 -11 15 -35 15 l-35
0 0 240 0 240 35 0 c28 0 35 4 35 20 0 18 -7 20 -75 20 l-75 0 0 -275z"/>
<path d="M39350 14625 l0 -275 40 0 40 0 0 115 c0 114 0 115 25 121 31 8 33
32 3 36 -22 3 -23 7 -26 121 l-3 117 26 0 c18 0 25 5 25 20 0 18 -7 20 -65 20
l-65 0 0 -275z"/>
<path d="M40720 14625 l0 -275 40 0 40 0 0 135 c0 83 4 135 10 135 6 0 10 9
10 20 0 11 -4 20 -10 20 -6 0 -10 40 -10 100 0 60 4 100 10 100 6 0 10 9 10
20 0 17 -7 20 -50 20 l-50 0 0 -275z"/>
<path d="M41020 14880 c0 -16 7 -20 30 -20 23 0 30 4 30 20 0 16 -7 20 -30 20
-23 0 -30 -4 -30 -20z"/>
<path d="M41280 14880 c0 -18 7 -20 70 -20 63 0 70 2 70 20 0 18 -7 20 -70 20
-63 0 -70 -2 -70 -20z"/>
<path d="M41690 14880 c0 -17 7 -20 45 -20 38 0 45 3 45 20 0 17 -7 20 -45 20
-38 0 -45 -3 -45 -20z"/>
<path d="M32480 14872 c-50 -15 -91 -92 -76 -140 8 -26 65 -82 83 -82 16 0 19
95 3 105 -13 8 -13 58 1 72 16 16 7 51 -11 45z"/>
<path d="M42047 14862 c-42 -28 -56 -53 -57 -98 0 -47 21 -79 69 -107 l31 -18
0 46 c0 26 -7 57 -17 71 -15 23 -15 28 0 60 18 37 22 64 10 64 -5 0 -20 -8
-36 -18z"/>
<path d="M32720 14850 c0 -11 2 -20 5 -20 2 0 9 9 15 20 9 16 8 20 -5 20 -8 0
-15 -9 -15 -20z"/>
<path d="M34102 14842 c-80 -53 -112 -119 -112 -227 0 -94 44 -171 130 -228
32 -22 40 -21 40 4 0 11 -15 38 -33 60 -42 48 -57 97 -57 181 0 70 35 158 71
181 19 12 27 57 11 57 -5 0 -28 -12 -50 -28z"/>
<path d="M42310 14854 c0 -8 5 -12 10 -9 6 3 10 10 10 16 0 5 -4 9 -10 9 -5 0
-10 -7 -10 -16z"/>
<path d="M24148 14833 c-72 -60 -97 -113 -98 -203 0 -100 14 -138 76 -197 29
-29 58 -53 64 -53 15 0 12 56 -4 69 -8 6 -24 35 -36 63 -18 42 -21 66 -18 128
3 66 8 84 36 129 31 51 41 91 23 91 -5 0 -24 -12 -43 -27z"/>
<path d="M24490 14842 c0 -26 43 -64 63 -56 24 9 21 19 -14 48 -36 31 -49 33
-49 8z"/>
<path d="M23820 14747 c0 -103 11 -119 30 -46 12 44 6 92 -16 124 -12 17 -14
7 -14 -78z"/>
<path d="M39711 14740 l0 -105 19 24 c15 17 20 38 20 81 0 43 -5 64 -20 81
l-19 24 0 -105z"/>
<path d="M34490 14793 c0 -21 7 -56 15 -78 19 -52 19 -132 0 -185 -8 -23 -15
-60 -15 -82 0 -36 2 -38 20 -28 30 16 78 107 85 161 10 68 -11 152 -48 201
-43 56 -57 59 -57 11z"/>
<path d="M37835 14763 c10 -86 10 -199 0 -288 l-8 -70 28 25 c85 78 99 249 29
352 -14 20 -33 39 -41 42 -14 6 -15 -2 -8 -61z"/>
<path d="M31460 14680 c0 -11 5 -20 10 -20 6 0 10 9 10 20 0 11 -4 20 -10 20
-5 0 -10 -9 -10 -20z"/>
<path d="M26300 14534 l0 -146 22 14 c78 52 91 170 26 243 -16 19 -34 35 -39
35 -5 0 -9 -66 -9 -146z"/>
<path d="M21220 14524 c0 -105 3 -134 13 -128 58 33 85 98 67 164 -11 39 -54
100 -71 100 -5 0 -9 -61 -9 -136z"/>
<path d="M41022 14640 c0 -14 2 -19 5 -12 2 6 2 18 0 25 -3 6 -5 1 -5 -13z"/>
<path d="M31723 14504 c-40 -82 -73 -153 -73 -157 0 -4 9 -7 20 -7 16 0 29 20
60 88 23 48 47 92 56 98 11 9 14 27 12 70 l-3 58 -72 -150z"/>
<path d="M36015 14505 c-38 -81 -71 -152 -73 -156 -2 -5 6 -9 18 -9 17 0 30
18 66 94 24 52 49 96 55 98 6 2 9 28 7 62 l-3 59 -70 -148z"/>
<path d="M40053 14502 c-40 -84 -73 -155 -73 -157 0 -3 9 -5 21 -5 16 0 29 20
64 94 24 52 48 95 55 98 7 2 10 25 8 63 l-3 60 -72 -153z"/>
<path d="M32720 14505 c0 -63 4 -115 9 -115 5 0 21 14 35 31 19 22 26 42 26
71 0 47 -25 105 -51 119 -18 9 -19 4 -19 -106z"/>
<path d="M42310 14506 c0 -128 6 -138 48 -76 35 52 23 129 -27 174 l-21 19 0
-117z"/>
<path d="M24490 14545 c0 -8 5 -15 10 -15 14 0 13 -93 -1 -107 -6 -6 -9 -20
-7 -32 3 -21 4 -21 51 8 l47 31 0 65 0 65 -50 0 c-38 0 -50 -4 -50 -15z"/>
<path d="M32091 14460 c-1 -47 3 -90 7 -97 9 -14 92 -30 91 -17 0 5 -22 52
-49 104 l-49 95 0 -85z"/>
<path d="M36380 14468 c0 -105 5 -115 52 -123 21 -4 42 -5 44 -2 6 6 -82 197
-90 197 -3 0 -6 -33 -6 -72z"/>
<path d="M40420 14458 c0 -46 4 -88 8 -95 7 -12 92 -31 92 -21 0 10 -91 198
-96 198 -2 0 -4 -37 -4 -82z"/>
<path d="M39072 14447 c-33 -34 -42 -67 -18 -67 7 0 33 18 57 40 37 33 41 41
29 50 -24 16 -34 12 -68 -23z"/>
<path d="M39710 14417 l0 -67 41 0 41 0 -32 58 c-47 83 -50 84 -50 9z"/>
<path d="M23820 14413 l0 -63 35 0 36 0 -17 31 c-8 17 -24 45 -35 63 l-19 31
0 -62z"/>
<path d="M20856 14431 c-17 -18 -16 -20 26 -44 24 -14 53 -28 66 -32 19 -5 22
-3 22 19 0 17 -7 27 -22 32 -13 3 -35 15 -49 25 -26 18 -27 18 -43 0z"/>
<path d="M32401 14416 c-10 -11 -6 -18 17 -34 15 -12 40 -24 55 -27 44 -11 36
27 -10 50 -21 11 -41 21 -44 23 -3 1 -11 -4 -18 -12z"/>
<path d="M41981 14416 c-9 -11 -6 -18 21 -34 18 -11 45 -24 61 -27 22 -6 27
-4 27 11 0 17 -19 29 -91 62 -3 1 -11 -4 -18 -12z"/>
<path d="M23208 14383 c-31 -8 -21 -33 12 -33 23 0 30 4 30 20 0 20 -8 22 -42
13z"/>
<path d="M26918 14383 c-34 -9 -20 -33 18 -33 28 0 35 3 32 17 -3 19 -21 24
-50 16z"/>
<path d="M29158 14383 c-31 -8 -21 -33 12 -33 23 0 30 4 30 20 0 20 -8 22 -42
13z"/>
<path d="M29728 14383 c-33 -8 -20 -33 17 -33 28 0 35 4 35 20 0 20 -14 23
-52 13z"/>
</g>
</svg>
