<svg id="Capa_1" enable-background="new 0 0 352.194 352.194" height="512" viewBox="0 0 352.194 352.194" width="512" xmlns="http://www.w3.org/2000/svg"><path d="m184.955 249.519 5.913 10.209c4.473-2.585 8.208-6.32 10.793-10.793l-10.209-5.913c-1.558 2.691-3.806 4.939-6.497 6.497z"/><path d="m193.812 234.176h11.802c0-16.269-13.236-29.504-29.504-29.504v11.802c9.759 0 17.702 7.942 17.702 17.702z"/><path d="m283.877 192.664c69.259-18.889 63.552-58.112 63.24-59.959l-5.901-29.504c-.106-.513-.271-1.015-.507-1.481l-17.703-35.405c-.159-.319-.348-.614-.561-.897l-13.153-17.549c-3.694-4.927-8.733-8.562-14.581-10.504l-2.638-.879c-3.847-1.292-7.205-3.853-9.447-7.229-5.6-8.397-14.971-13.413-25.067-13.413h-3.305c-3.623 0-7.14-1.068-10.173-3.08l-2.679-1.782c-7.028-4.691-15.797-6.231-24.011-4.16l-5.611 1.398c-3.777.938-7.653.673-11.247-.767l-13.236-5.293c-7.211-2.874-15.148-2.886-22.37 0l-13.236 5.293c-3.605 1.446-7.5 1.705-11.253.767l-5.606-1.399c-8.208-2.077-16.971-.537-24.005 4.154l-2.697 1.794c-3.027 2.006-6.544 3.074-10.167 3.074h-3.304c-10.096 0-19.467 5.016-25.067 13.413-2.242 3.375-5.6 5.936-9.447 7.223l-2.632.873c-5.847 1.948-10.893 5.583-14.581 10.51l-13.164 17.549c-.212.283-.395.584-.561.897l-17.703 35.405c-.236.466-.401.968-.507 1.481l-5.936 29.693c-.271 1.664-5.978 40.887 63.281 59.776 40.108 10.934 54.418 17.113 59.357 19.786-1.487 3.293-2.655 6.757-3.446 10.362l-48.641 4.868c-4.024.395-8.078.596-12.05.596h-31.245c-11.855 0-22.14 8.031-25.02 19.538-1.758 7.022-.46 14.522 3.564 20.565l1.015 1.522c1.221 1.829 2.655 3.464 4.249 4.898 5.718 7.565 61.281 77.396 159.985 77.396 98.804 0 153.824-69.979 159.406-77.443 2.219-1.812 4.213-3.924 5.848-6.379 4.018-6.037 5.311-13.537 3.558-20.559-2.88-11.507-13.165-19.538-25.02-19.538h-31.245c-3.971 0-8.025-.201-12.05-.602l-48.647-4.868c-.791-3.605-1.959-7.069-3.446-10.362 4.945-2.673 19.255-8.845 59.363-19.779zm-107.768.206c22.771 0 41.306 18.535 41.306 41.306s-18.535 41.306-41.306 41.306-41.306-18.535-41.306-41.306 18.535-41.306 41.306-41.306zm-104.664-11.595c-58.307-15.903-54.902-45.277-54.772-46.257l5.747-28.731 17.113-34.219 12.847-17.125c2.242-2.998 5.305-5.205 8.863-6.391l2.638-.879c6.326-2.107 11.849-6.326 15.537-11.867 3.399-5.11 9.099-8.161 15.242-8.161h3.304c5.96 0 11.737-1.747 16.705-5.051l2.691-1.794c4.284-2.85 9.618-3.777 14.611-2.537l5.6 1.399c6.178 1.558 12.581 1.109 18.499-1.251l13.236-5.293c4.39-1.753 9.223-1.753 13.613 0l13.236 5.293c5.919 2.372 12.327 2.809 18.493 1.251l5.606-1.399c4.986-1.251 10.321-.325 14.616 2.543l2.685 1.782c4.963 3.31 10.74 5.057 16.699 5.057h3.305c6.143 0 11.843 3.051 15.248 8.161 3.688 5.535 9.211 9.754 15.537 11.867l2.644.885c3.552 1.18 6.615 3.387 8.863 6.385l12.84 17.124 17.113 34.219 5.7 28.466c.171 1.245 3.576 30.614-54.725 46.523-37.004 10.09-54.229 16.581-62.254 21.066-9.707-12.887-25.079-21.273-42.416-21.273s-32.709 8.385-42.41 21.273c-8.024-4.485-25.249-10.97-62.254-21.066zm104.664 159.117c-69.294 0-116.885-37.724-138.21-58.991.478.012.938.136 1.34.401l13.46 8.975c2.354 1.576 5.104 2.408 7.943 2.408h20.758c2.886 0 5.683.85 8.084 2.449l5.01 3.334c6.178 4.107 13.843 5.452 21.025 3.641l7.476-1.865c3.358-.844 6.939-.448 10.049 1.109l10.055 5.028c3.688 1.847 7.736 2.785 11.796 2.785 2.142 0 4.296-.26 6.391-.791l11.288-2.821c2.331-.578 4.774-.578 7.075-.006l11.282 2.827c6.107 1.54 12.563.826 18.198-1.995l10.043-5.028c3.116-1.558 6.674-1.947 10.061-1.109l7.465 1.865c7.199 1.812 14.858.466 21.031-3.641l5.01-3.334c2.402-1.599 5.199-2.449 8.084-2.449h20.759c2.832 0 5.582-.832 7.943-2.402l13.46-8.975c.183-.124.413-.118.62-.189-21.242 21.292-68.444 58.774-137.496 58.774zm112.548-100.315h31.245c6.432 0 12.008 4.361 13.578 10.604.95 3.806.248 7.872-1.935 11.153-3.234 4.851-8.651 7.748-14.487 7.748h-2.679c-2.832 0-5.582.832-7.943 2.402l-13.46 8.975c-.419.283-.897.425-1.399.425h-20.759c-5.228 0-10.285 1.534-14.628 4.432l-5.01 3.334c-3.417 2.278-7.642 3.009-11.625 2.018l-7.465-1.865c-6.102-1.54-12.563-.82-18.198 1.995l-10.043 5.028c-3.122 1.558-6.686 1.935-10.061 1.109l-11.288-2.827c-4.178-1.039-8.603-1.044-12.793.006l-11.294 2.827c-3.369.832-6.939.448-10.049-1.109l-10.055-5.028c-5.635-2.821-12.097-3.535-18.187-1.995l-7.476 1.865c-3.954.991-8.202.26-11.619-2.018l-5.01-3.334c-4.337-2.903-9.394-4.437-14.622-4.437h-20.76c-.502 0-.98-.142-1.393-.419l-13.46-8.975c-2.354-1.576-5.104-2.408-7.943-2.408h-4.508c-4.691 0-9.04-2.331-11.642-6.231l-1.009-1.511c-2.189-3.287-2.891-7.352-1.941-11.159 1.57-6.243 7.146-10.604 13.578-10.604h31.245c4.355 0 8.804-.218 13.224-.655l46.245-4.626c.336 28.997 23.999 52.488 53.078 52.488s52.742-23.491 53.078-52.488l46.251 4.626c4.415.436 8.864.654 13.219.654z"/><path d="m170.208 57.15h11.802v100.315h-11.802z"/><path d="m124.251 79.374h11.802v92.045h-11.802z" transform="matrix(.842 -.54 .54 .842 -47.105 90.134)"/><path d="m94.27 122.57h11.802v79.756h-11.802z" transform="matrix(.421 -.907 .907 .421 -89.349 184.939)"/><path d="m176.058 119.486h92.045v11.802h-92.045z" transform="matrix(.54 -.842 .842 .54 -3.375 244.599)"/><path d="m212.182 156.532h79.76v11.802h-79.76z" transform="matrix(.907 -.421 .421 .907 -44.939 121.077)"/></svg>